<svg width="18" height="18" viewBox="0 0 18 18" fill="none" xmlns="http://www.w3.org/2000/svg">
<path d="M17.6589 7.33402C17.737 7.33402 17.8003 7.39888 17.8003 7.47889V9C17.8003 9.56932 17.7487 10.126 17.6497 10.666C16.8835 14.8604 13.2752 18.0303 8.95014 17.9998C4.09707 17.9655 0.213154 13.9498 0.223899 8.97972C0.234576 4.01857 4.16518 0 9.0121 0C11.3867 0 13.5413 0.964758 15.1232 2.53188C15.1803 2.58845 15.1818 2.68168 15.1256 2.7392L13.0242 4.89115C12.9701 4.94656 12.8827 4.948 12.8273 4.89396C11.8345 3.92614 10.4912 3.33197 9.0121 3.33197C5.95781 3.33197 3.49831 5.83284 3.47757 8.96066C3.45673 12.109 5.94271 14.668 9.0121 14.668C11.5025 14.668 13.6089 12.9832 14.3034 10.666H9.15357C9.07544 10.666 9.0121 10.6011 9.0121 10.5211V7.47886C9.0121 7.39884 9.07544 7.33398 9.15357 7.33398H17.6589V7.33402Z" fill="#2196F3"/>
</svg>
